<svg xmlns="http://www.w3.org/2000/svg" viewBox="0 0 128 128" width="128" height="128">
	<style>
		tspan { white-space:pre }
		.shp0 { fill: #808080 } 
	</style>
	<path id="Shape 1" class="shp0" d="M110.71 70.13C110.29 69.71 109.79 69.5 109.21 69.5L96.46 69.5C95.49 69.5 94.83 70.01 94.47 71.03C92.61 75.45 91.44 78.04 90.95 78.8C87.85 83.84 83.74 87.81 78.6 90.68C73.47 93.56 67.93 95 62 95C57.71 95 53.57 94.2 49.58 92.61C45.6 91.02 42.03 88.76 38.89 85.84L47.99 76.74C48.83 75.9 49.25 74.9 49.25 73.75C49.25 72.6 48.83 71.6 47.99 70.76C47.15 69.92 46.15 69.5 45 69.5L15.25 69.5C14.1 69.5 13.1 69.92 12.26 70.76C11.42 71.6 11 72.6 11 73.75L11 103.5C11 104.65 11.42 105.65 12.26 106.49C13.1 107.33 14.1 107.75 15.25 107.75C16.4 107.75 17.4 107.33 18.24 106.49L26.8 97.92C31.54 102.44 36.93 105.91 42.97 108.35C49.02 110.78 55.27 112 61.73 112C73.86 112 84.45 108.31 93.48 100.94C102.51 93.57 108.44 83.95 111.27 72.09C111.32 72 111.34 71.85 111.34 71.63C111.34 71.05 111.13 70.55 110.71 70.13ZM111.74 15.51C110.9 14.67 109.9 14.25 108.75 14.25C107.6 14.25 106.6 14.67 105.76 15.51L97.13 24.08C92.39 19.61 86.97 16.14 80.86 13.69C74.75 11.23 68.46 10 62 10C49.82 10 39.2 13.69 30.13 21.06C21.05 28.43 15.07 38.05 12.2 49.91L12.2 50.38C12.2 50.95 12.4 51.45 12.83 51.87C13.25 52.29 13.74 52.5 14.32 52.5L27.54 52.5C28.51 52.5 29.17 51.99 29.53 50.97C31.39 46.55 32.56 43.96 33.05 43.2C36.15 38.16 40.26 34.19 45.4 31.32C50.53 28.44 56.07 27 62 27C70.9 27 78.62 30.03 85.18 36.1L76.01 45.26C75.17 46.1 74.75 47.1 74.75 48.25C74.75 49.4 75.17 50.4 76.01 51.24C76.85 52.08 77.85 52.5 79 52.5L108.75 52.5C109.9 52.5 110.9 52.08 111.74 51.24C112.58 50.4 113 49.4 113 48.25L113 18.5C113 17.35 112.58 16.35 111.74 15.51Z" />
	<path id="Shape 1 copy" class="shp0" d="M110.71 70.13C110.29 69.71 109.79 69.5 109.21 69.5L96.46 69.5C95.49 69.5 94.83 70.01 94.47 71.03C92.61 75.45 91.44 78.04 90.95 78.8C87.85 83.84 83.74 87.81 78.6 90.68C73.47 93.56 67.93 95 62 95C57.71 95 53.57 94.2 49.58 92.61C45.6 91.02 42.03 88.76 38.89 85.84L47.99 76.74C48.83 75.9 49.25 74.9 49.25 73.75C49.25 72.6 48.83 71.6 47.99 70.76C47.15 69.92 46.15 69.5 45 69.5L15.25 69.5C14.1 69.5 13.1 69.92 12.26 70.76C11.42 71.6 11 72.6 11 73.75L11 103.5C11 104.65 11.42 105.65 12.26 106.49C13.1 107.33 14.1 107.75 15.25 107.75C16.4 107.75 17.4 107.33 18.24 106.49L26.8 97.92C31.54 102.44 36.93 105.91 42.97 108.35C49.02 110.78 55.27 112 61.73 112C73.86 112 84.45 108.31 93.48 100.94C102.51 93.57 108.44 83.95 111.27 72.09C111.32 72 111.34 71.85 111.34 71.63C111.34 71.05 111.13 70.55 110.71 70.13ZM111.74 15.51C110.9 14.67 109.9 14.25 108.75 14.25C107.6 14.25 106.6 14.67 105.76 15.51L97.13 24.08C92.39 19.61 86.97 16.14 80.86 13.69C74.75 11.23 68.46 10 62 10C49.82 10 39.2 13.69 30.13 21.06C21.05 28.43 15.07 38.05 12.2 49.91L12.2 50.38C12.2 50.95 12.4 51.45 12.83 51.87C13.25 52.29 13.74 52.5 14.32 52.5L27.54 52.5C28.51 52.5 29.17 51.99 29.53 50.97C31.39 46.55 32.56 43.96 33.05 43.2C36.15 38.16 40.26 34.19 45.4 31.32C50.53 28.44 56.07 27 62 27C70.9 27 78.62 30.03 85.18 36.1L76.01 45.26C75.17 46.1 74.75 47.1 74.75 48.25C74.75 49.4 75.17 50.4 76.01 51.24C76.85 52.08 77.85 52.5 79 52.5L108.75 52.5C109.9 52.5 110.9 52.08 111.74 51.24C112.58 50.4 113 49.4 113 48.25L113 18.5C113 17.35 112.58 16.35 111.74 15.51Z" />
</svg>